<svg xmlns="http://www.w3.org/2000/svg" viewBox="0 0 20 20" width="20" height="20">
  <desc>Game Console Streamline Icon: https://streamlinehq.com</desc>
  <title>game--console</title>
  <path
    d="M4.69375 16.25a3.4250000000000003 3.4250000000000003 0 0 1 -0.8999999999999999 -0.11875A3.5 3.5 0 0 1 1.36875 11.875l1.45625 -5.525a3.4625 3.4625 0 0 1 1.61875 -2.1437500000000003 3.39375 3.39375 0 0 1 2.59375 -0.3375A3.4499999999999997 3.4499999999999997 0 0 1 9.1875 5.625h1.625a3.4312500000000004 3.4312500000000004 0 0 1 2.15 -1.75625 3.39375 3.39375 0 0 1 2.59375 0.3375 3.48125 3.48125 0 0 1 1.61875 2.13125L18.631249999999998 11.875a3.5 3.5 0 0 1 -2.43125 4.26875 3.39375 3.39375 0 0 1 -2.59375 -0.3375 3.4625 3.4625 0 0 1 -1.61875 -2.13125L11.875 13.125h-3.75l-0.14375000000000002 0.5375a3.4625 3.4625 0 0 1 -1.61875 2.13125 3.4125 3.4125 0 0 1 -1.66875 0.45625ZM6.14375 5a2.1812500000000004 2.1812500000000004 0 0 0 -1.075 0.28750000000000003 2.25 2.25 0 0 0 -1.0374999999999999 1.36875l-1.45625 5.525a2.25 2.25 0 0 0 1.55 2.74375 2.1437500000000003 2.1437500000000003 0 0 0 1.6375000000000002 -0.21250000000000002 2.2125 2.2125 0 0 0 1.0374999999999999 -1.36875L7.1875 11.875h5.625l0.38125 1.46875a2.2375 2.2375 0 0 0 1.0374999999999999 1.36875 2.1625 2.1625 0 0 0 1.6437499999999998 0.21250000000000002 2.2375 2.2375 0 0 0 1.5437500000000002 -2.74375l-1.45625 -5.525a2.21875 2.21875 0 0 0 -1.03125 -1.36875 2.1625 2.1625 0 0 0 -1.6437499999999998 -0.21250000000000002 2.21875 2.21875 0 0 0 -1.4812500000000002 1.3875000000000002l-0.15 0.41250000000000003h-3.3125l-0.15 -0.41250000000000003a2.225 2.225 0 0 0 -1.4874999999999998 -1.3875000000000002 2.175 2.175 0 0 0 -0.5625 -0.075Z"
    fill="currentColor"
    stroke-width="0.625"
  />
  <path d="M6.25 10a1.25 1.25 0 1 1 1.25 -1.25 1.25 1.25 0 0 1 -1.25 1.25Zm0 -1.25Z" fill="currentColor" stroke-width="0.625"/>
  <path d="M13.125 7.5a0.625 0.625 0 1 0 1.25 0 0.625 0.625 0 1 0 -1.25 0" fill="currentColor" stroke-width="0.625"/>
  <path d="M13.125 10a0.625 0.625 0 1 0 1.25 0 0.625 0.625 0 1 0 -1.25 0" fill="currentColor" stroke-width="0.625"/>
  <path d="M11.875 8.75a0.625 0.625 0 1 0 1.25 0 0.625 0.625 0 1 0 -1.25 0" fill="currentColor" stroke-width="0.625"/>
  <path d="M14.375 8.75a0.625 0.625 0 1 0 1.25 0 0.625 0.625 0 1 0 -1.25 0" fill="currentColor" stroke-width="0.625"/>
  <path d="M0 0h20v20H0Z" fill="none" stroke-width="0.625"/>
</svg>
